<?xml version="1.0" encoding="UTF-8" standalone="no"?>
<!-- Created with Inkscape (http://www.inkscape.org/) -->

<svg
   width="264.56873"
   height="302.36166"
   viewBox="0 0 70.000472 79.999859"
   version="1.1"
   id="svg1"
   inkscape:version="1.3 (0e150ed6c4, 2023-07-21)"
   sodipodi:docname="inkscape-daeddeus.svg"
   inkscape:export-filename="inkscape-daeddeus.png"
   inkscape:export-xdpi="96"
   inkscape:export-ydpi="96"
   xmlns:inkscape="http://www.inkscape.org/namespaces/inkscape"
   xmlns:sodipodi="http://sodipodi.sourceforge.net/DTD/sodipodi-0.dtd"
   xmlns="http://www.w3.org/2000/svg"
   xmlns:svg="http://www.w3.org/2000/svg">
  <sodipodi:namedview
     id="namedview1"
     pagecolor="#ffffff"
     bordercolor="#000000"
     borderopacity="0.25"
     inkscape:showpageshadow="2"
     inkscape:pageopacity="0.0"
     inkscape:pagecheckerboard="0"
     inkscape:deskcolor="#d1d1d1"
     inkscape:document-units="mm"
     inkscape:zoom="0.65890488"
     inkscape:cx="494.00151"
     inkscape:cy="263.3157"
     inkscape:window-width="1366"
     inkscape:window-height="715"
     inkscape:window-x="-8"
     inkscape:window-y="-8"
     inkscape:window-maximized="1"
     inkscape:current-layer="svg1">
    <inkscape:page
       x="7.831307e-07"
       y="-3.2349504e-08"
       width="70.000473"
       height="79.999863"
       id="page1"
       margin="0"
       bleed="0" />
  </sodipodi:namedview>
  <defs
     id="defs1" />
  <path
     id="rect2"
     style="fill:#eff2c0;fill-opacity:1;stroke:#a52422;stroke-width:10;stroke-linecap:round;stroke-linejoin:round;stroke-dasharray:none;stroke-dashoffset:0;stroke-opacity:1;paint-order:stroke fill markers"
     inkscape:label="D1"
     d="m 15.079996,4.9999981 c -5.5841996,0 -10.0799996,4.495793 -10.0799996,10.0800049 v 18.452621 12.934611 18.45262 c 0,5.584212 4.4958,10.080001 10.0799996,10.080001 h 9.84023 c 0.0269,0 0.0528,-0.004 0.0796,-0.004 0.027,2.1e-4 0.053,0.004 0.0801,0.004 h 8.45271 1.38803 1.5472 c 15.80703,0 28.53262,-12.725588 28.53262,-28.532621 V 33.532624 c 0,-15.807035 -12.72559,-28.5326259 -28.53262,-28.5326259 h -1.5472 -1.38802 -8.45272 c -0.0271,0 -0.0531,0.0039 -0.0801,0.0041 -0.0268,-2.08e-4 -0.0527,-0.0041 -0.0796,-0.0041 z m 25.92039,17.5002239 c 3.60099,0 6.49986,2.898868 6.49986,6.499862 v 15.99954 1.000456 c 0,0.909072 -0.1857,1.772704 -0.51987,2.55695 a 12.5,12.5 0 0 1 -11.98014,8.942606 12.5,12.5 0 0 1 -12.50002,-12.500012 12.5,12.5 0 0 1 11.99979,-12.464356 v -3.535184 c 0,-3.600994 2.89938,-6.499862 6.50038,-6.499862 z" />
</svg>
